<svg width="40" height="44" viewBox="0 0 40 44" fill="none" xmlns="http://www.w3.org/2000/svg">
<g opacity="0.5">
<path opacity="0.4" d="M33.585 23.9907V34.5823C33.585 37.3127 31.48 40.2432 28.95 41.1034L22.168 43.3738C20.978 43.7838 19.043 43.7838 17.874 43.3738L11.092 41.1034C8.54101 40.2432 6.45801 37.3127 6.45801 34.5823L6.479 23.9907L15.876 30.1817C18.172 31.7019 21.956 31.7019 24.252 30.1817L33.585 23.9907Z" fill="#1B1C1E"/>
<path d="M36.9861 10.268L24.2521 1.81694C21.9561 0.296695 18.1721 0.296695 15.8761 1.81694L3.0771 10.268C-1.0257 12.9585 -1.0257 19.0395 3.0771 21.7499L6.47909 23.9905L15.8761 30.1815C18.1721 31.7017 21.9561 31.7017 24.2521 30.1815L33.5851 23.9905L36.4971 22.0502V28.6314C36.4971 29.5115 37.2201 30.2415 38.0921 30.2415C38.9631 30.2415 39.6861 29.5115 39.6861 28.6314V18.0496C40.5371 15.2791 39.6651 12.0583 36.9861 10.268Z" fill="#1B1C1E"/>
</g>
</svg>
