<svg width="24" height="25" viewBox="0 0 24 25" fill="none" xmlns="http://www.w3.org/2000/svg">
<path d="M15.75 12.9844C15.75 13.9745 15.35 14.9346 14.65 15.6347C13.95 16.3348 12.99 16.735 12 16.735C11.01 16.735 10.05 16.3348 9.34998 15.6347C8.64998 14.9346 8.25 13.9745 8.25 12.9844C8.25 12.7744 8.27006 12.5642 8.31006 12.3642H7V17.3552C7 17.7053 7.28001 17.9852 7.63001 17.9852H16.37C16.54 17.9852 16.7 17.915 16.82 17.805C16.93 17.685 17 17.5252 17 17.3552V12.3642H15.6899C15.7299 12.5642 15.75 12.7744 15.75 12.9844ZM12 15.4848C12.33 15.4848 12.65 15.4248 12.96 15.2948C13.26 15.1648 13.54 14.9847 13.77 14.7547C14 14.5147 14.1801 14.2446 14.3101 13.9445C14.4401 13.6345 14.5 13.3144 14.5 12.9844C14.5 12.6543 14.4401 12.3343 14.3101 12.0243C14.1801 11.7242 14 11.4441 13.77 11.2141C13.53 10.984 13.26 10.794 12.96 10.6739C12.65 10.5439 12.33 10.484 12 10.484C11.34 10.484 10.7 10.744 10.23 11.2141C9.75998 11.6842 9.5 12.3243 9.5 12.9844C9.5 13.6445 9.75998 14.2846 10.23 14.7547C10.7 15.2248 11.34 15.4848 12 15.4848ZM15 10.3638H16.5C16.6 10.3638 16.69 10.324 16.76 10.254C16.83 10.1739 16.87 10.0839 16.88 9.9839V8.48365C16.88 8.38363 16.84 8.29385 16.76 8.22384C16.69 8.14383 16.6 8.1037 16.5 8.1037H15C14.9 8.1037 14.8 8.14383 14.73 8.22384C14.66 8.29385 14.62 8.38363 14.62 8.48365V9.9839C14.62 10.1939 14.79 10.3638 15 10.3638ZM12 0.982422C8.82 0.982422 5.77001 2.24239 3.51001 4.49276C1.26001 6.75313 0 9.80387 0 12.9844C0 16.1649 1.26001 19.2156 3.51001 21.476C5.77001 23.7264 8.82 24.9864 12 24.9864C13.58 24.9864 15.14 24.6761 16.59 24.076C18.05 23.4659 19.37 22.5862 20.49 21.476C21.6 20.3558 22.48 19.0352 23.09 17.575C23.69 16.1247 24 14.5646 24 12.9844C24 11.4041 23.69 9.84403 23.09 8.39379C22.48 6.93355 21.6 5.61295 20.49 4.49276C19.37 3.38258 18.05 2.50283 16.59 1.89273C15.14 1.29263 13.58 0.982422 12 0.982422ZM18.25 17.845C18.25 18.6052 17.62 19.2354 16.86 19.2354H7.14002C6.38002 19.2354 5.75 18.6052 5.75 17.845V8.12373C5.75 7.3636 6.38002 6.73336 7.14002 6.73336H16.86C17.62 6.73336 18.25 7.3636 18.25 8.12373V17.845Z" fill="#148E88"/>
</svg>
