<svg width="24" height="25" viewBox="0 0 24 25" fill="none" xmlns="http://www.w3.org/2000/svg">
<path d="M12.0005 0.982422C5.37049 0.982422 0.000488281 6.3533 0.000488281 12.9844C0.000488281 19.6155 5.37049 24.9864 12.0005 24.9864C18.6305 24.9864 24.0005 19.6155 24.0005 12.9844C24.0005 6.3533 18.6305 0.982422 12.0005 0.982422ZM9.06055 17.9554H6.63049V10.1338H9.06055V17.9554ZM7.83045 9.1737C7.06045 9.1737 6.57044 8.63365 6.57044 7.96354C6.57044 7.27343 7.08048 6.74313 7.86048 6.74313C8.65048 6.74313 9.13051 7.27343 9.1405 7.96354C9.1405 8.63365 8.65045 9.1737 7.83045 9.1737ZM17.9404 17.9554H15.5105V13.6246C15.5105 12.6145 15.1605 11.9344 14.2805 11.9344C13.6105 11.9344 13.2105 12.3942 13.0305 12.8442C12.9705 13.0043 12.9504 13.2244 12.9504 13.4444V17.9554H10.5205V12.6342C10.5205 11.6541 10.4904 10.8339 10.4504 10.1338H12.5704L12.6805 11.2243H12.7305C13.0505 10.7142 13.8305 9.96387 15.1405 9.96387C16.7405 9.96387 17.9404 11.0342 17.9404 13.3345V17.9554Z" fill="#148E88"/>
</svg>
