<svg width="40" height="51" viewBox="0 0 40 51" fill="none" xmlns="http://www.w3.org/2000/svg">
<g opacity="0.5">
<path opacity="0.4" d="M35.06 14.9058L34.71 14.7059L31.19 12.7055L23.92 8.55471C21.7 7.2845 18.3 7.2845 16.08 8.55471L8.81 12.7055L5.29102 14.7359L4.83502 14.9859C0.304022 17.9864 0 18.5364 0 23.3672V34.8891C0 39.7099 0.304012 40.2599 4.93701 43.3404L16.08 49.6916C17.19 50.3417 18.58 50.6417 20 50.6417C21.39 50.6417 22.81 50.3417 23.92 49.6916L35.16 43.2606C39.7 40.2601 40 39.7099 40 34.8891V23.3672C40 18.5364 39.7 17.9863 35.06 14.9058Z" fill="#1B1C1E"/>
<path d="M5.29102 14.7362L8.81 12.7058L15.75 8.75524L16.08 8.56502C18.3 7.28481 21.7 7.28481 23.92 8.56502L24.25 8.75524L31.19 12.7058L34.71 14.7162V9.35519C34.71 3.73427 31.57 0.633789 25.87 0.633789H14.1C8.40498 0.633789 5.29102 3.73427 5.29102 9.35519V14.7362Z" fill="#1B1C1E"/>
<path d="M27.1899 28.9883L25.6199 30.8886C25.3699 31.1586 25.1899 31.7086 25.2199 32.0887L25.3699 34.5391C25.4699 36.0393 24.3799 36.8096 22.9599 36.2596L20.6599 35.3593C20.2999 35.2392 19.6999 35.2392 19.3399 35.3593L17.0399 36.2596C15.6199 36.8096 14.5299 36.0393 14.6299 34.5391L14.7799 32.0887C14.8099 31.7086 14.6299 31.1586 14.3799 30.8886L12.8099 28.9883C11.8229 27.8382 12.2529 26.5579 13.7219 26.1878L16.1299 25.5876C16.5099 25.4876 16.9599 25.1375 17.1599 24.8075L18.5099 22.7573C19.3399 21.4871 20.6599 21.4871 21.4899 22.7573L22.8399 24.8075C23.0399 25.1375 23.4899 25.4876 23.8699 25.5876L26.2799 26.1878C27.7499 26.5579 28.1799 27.8382 27.1899 28.9883Z" fill="#1B1C1E"/>
</g>
</svg>
