<svg width="24" height="25" viewBox="0 0 24 25" fill="none" xmlns="http://www.w3.org/2000/svg">
<path d="M12 0.982422C5.37 0.982422 0 6.3533 0 12.9844C0 19.6155 5.37 24.9864 12 24.9864C18.63 24.9864 24 19.6155 24 12.9844C24 6.3533 18.63 0.982422 12 0.982422ZM17.77 10.0337C17.77 10.1537 17.77 10.2841 17.77 10.4141C17.77 14.3448 14.7801 18.8755 9.31006 18.8755C7.62006 18.8755 6.05999 18.3853 4.73999 17.5452C4.97999 17.5752 5.20996 17.5852 5.45996 17.5852C6.84996 17.5852 8.13003 17.1051 9.15003 16.315C7.84003 16.285 6.74 15.4246 6.37 14.2444C6.83 14.3144 7.23996 14.3146 7.70996 14.1945C7.03996 14.0545 6.43 13.6947 6 13.1646C5.57 12.6245 5.32996 11.9643 5.32996 11.2741V11.2341C5.71996 11.4641 6.19005 11.594 6.67005 11.614C6.26005 11.344 5.92995 10.9741 5.69995 10.544C5.46995 10.114 5.34998 9.63399 5.34998 9.14391C5.34998 8.58382 5.49 8.08374 5.75 7.64367C6.5 8.56382 7.42999 9.31365 8.48999 9.84374C9.53999 10.3838 10.7 10.694 11.88 10.754C11.46 8.72371 12.98 7.09329 14.79 7.09329C15.65 7.09329 16.42 7.45352 16.96 8.02361C17.64 7.90359 18.28 7.65359 18.85 7.31354C18.63 8.00365 18.16 8.58388 17.54 8.95394C18.14 8.88393 18.72 8.72369 19.26 8.48365C18.85 9.08375 18.35 9.60364 17.77 10.0337Z" fill="#148E88"/>
</svg>
