<svg width="40" height="38" viewBox="0 0 40 38" fill="none" xmlns="http://www.w3.org/2000/svg">
<g opacity="0.5">
<path opacity="0.4" d="M20 5.86483V37.6401C19.66 37.6401 19.3 37.5801 19.02 37.4201L18.94 37.38C15.1 35.2997 8.4 33.1192 4.06 32.5491L3.48 32.4693C1.56 32.2292 0 30.4488 0 28.5385V4.5946C0 2.23421 1.94 0.453979 4.32 0.654012C8.52 0.984066 14.88 3.08429 18.44 5.28465L18.94 5.58475C19.24 5.76478 19.62 5.86483 20 5.86483Z" fill="#1B1C1E"/>
<path d="M40 4.61526V28.5391C40 30.4494 38.44 32.2299 36.52 32.4699L35.86 32.5498C31.5 33.1199 24.78 35.3203 20.94 37.4207C20.68 37.5807 20.36 37.6407 20 37.6407V5.86546C20.38 5.86546 20.76 5.76542 21.06 5.58539L21.4 5.36538C24.96 3.14502 31.34 1.02473 35.54 0.674672H35.66C38.04 0.474639 40 2.23487 40 4.61526Z" fill="#1B1C1E"/>
<path d="M11.5 13.6768H7C6.18 13.6768 5.5 12.9967 5.5 12.1865C5.5 11.3764 6.18 10.6963 7 10.6963H11.5C12.32 10.6963 13 11.3764 13 12.1865C13 12.9967 12.32 13.6768 11.5 13.6768Z" fill="#1B1C1E"/>
<path d="M13 19.6174H7C6.18 19.6174 5.5 18.9473 5.5 18.1372C5.5 17.3171 6.18 16.647 7 16.647H13C13.82 16.647 14.5 17.3171 14.5 18.1372C14.5 18.9473 13.82 19.6174 13 19.6174Z" fill="#1B1C1E"/>
</g>
</svg>
